<svg width="960" height="280" viewBox="0 0 960 280" fill="none" xmlns="http://www.w3.org/2000/svg">
  <defs>
    <linearGradient id="g1" x1="0" y1="0" x2="1" y2="1">
      <stop offset="0" stop-color="#2563EB"/>
      <stop offset="1" stop-color="#06B6D4"/>
    </linearGradient>
  </defs>
  <rect width="960" height="280" rx="28" fill="#FFFFFF"/>
  <g transform="translate(40,40)">
    <rect width="200" height="200" rx="46" fill="url(#g1)"/>
    <path d="M100 52C125 52 146 73 146 98" stroke="#E0F2FE" stroke-width="8" stroke-linecap="round"/>
    <path d="M52 98C52 72 74 50 100 50" stroke="#E0F2FE" stroke-width="8" stroke-linecap="round"/>
    <path d="M66 98C66 80 81 65 100 65C118 65 134 80 134 98" stroke="#BAE6FD" stroke-width="8" stroke-linecap="round"/>
    <path d="M78 98C78 87 87 78 100 78C112 78 122 87 122 98" stroke="#BAE6FD" stroke-width="8" stroke-linecap="round"/>
    <path d="M54 112C64 135 82 150 100 150C118 150 136 135 146 112" stroke="#E0F2FE" stroke-width="8" stroke-linecap="round"/>
    <path d="M70 113C77 128 88 138 100 138C112 138 123 128 130 113" stroke="#BAE6FD" stroke-width="8" stroke-linecap="round"/>
    <rect x="94" y="149" width="12" height="24" rx="6" fill="#E0F2FE"/>
  </g>
  <text x="276" y="136" fill="#0F172A" font-family="Sora, Manrope, sans-serif" font-size="74" font-weight="700" letter-spacing="-1.2">Appraisify</text>
  <text x="280" y="182" fill="#0369A1" font-family="Sora, Manrope, sans-serif" font-size="23" font-weight="600" letter-spacing="2.1">HUMAN SIGNALS, CLEAR DECISIONS</text>
</svg>
